<?xml version="1.0" encoding="utf-8"?>
<!-- Generator: Adobe Illustrator 21.1.0, SVG Export Plug-In . SVG Version: 6.00 Build 0)  -->
<svg version="1.1" id="Layer_1" xmlns="http://www.w3.org/2000/svg" xmlns:xlink="http://www.w3.org/1999/xlink" x="0px" y="0px"
	 viewBox="0 0 554 165.2" style="enable-background:new 0 0 554 165.2;" xml:space="preserve">
<style type="text/css">
	.st0{fill:#2DAEE4;stroke:#000000;stroke-width:2.11;stroke-miterlimit:10;}
	.st1{fill:#357B3C;stroke:#010101;stroke-width:2.11;stroke-miterlimit:10;}
	.st2{fill:#676767;stroke:#000000;stroke-width:2.11;stroke-miterlimit:10;}
	.st3{fill:#87B240;stroke:#010101;stroke-width:2.11;stroke-miterlimit:10;}
	.st4{fill:#C54927;stroke:#000000;stroke-width:2.11;stroke-miterlimit:10;}
	.st5{fill:#E4BE21;stroke:#010101;stroke-width:2.11;stroke-miterlimit:10;}
</style>
<title>Asset 4</title>
<g id="Layer_2">
	<g id="Layer_1-2">
		<g>
			<polygon class="st0" points="28.1,105.9 21.4,94.3 28.1,82.6 41.6,82.6 48.3,94.3 41.6,105.9 			"/>
			<polygon class="st0" points="28.1,129.2 21.4,117.6 28.1,105.9 41.6,105.9 48.3,117.6 41.6,129.2 			"/>
			<polygon class="st0" points="28.1,152.5 21.4,140.9 28.1,129.2 41.6,129.2 48.3,140.9 41.6,152.5 			"/>
			<polygon class="st1" points="48.3,117.6 41.6,105.9 48.3,94.3 61.8,94.3 68.5,105.9 61.8,117.6 			"/>
			<polygon class="st0" points="68.5,129.2 61.8,117.6 68.5,105.9 81.9,105.9 88.7,117.6 81.9,129.2 			"/>
			<polygon class="st0" points="169.4,140.9 162.7,129.2 169.4,117.6 182.8,117.6 189.6,129.2 182.8,140.9 			"/>
			<polygon class="st2" points="48.3,140.9 41.6,129.2 48.3,117.6 61.8,117.6 68.5,129.2 61.8,140.9 			"/>
			<polygon class="st3" points="209.7,164.2 203,152.5 209.7,140.9 223.2,140.9 229.9,152.5 223.2,164.2 			"/>
			<polygon class="st2" points="102.1,164.2 88.7,164.2 81.9,152.5 88.7,140.9 102.1,140.9 108.8,152.5 			"/>
			<polygon class="st1" points="182.8,140.9 189.6,152.5 182.8,164.2 169.4,164.2 162.7,152.5 169.4,140.9 			"/>
			<polygon class="st1" points="61.8,140.9 68.5,152.5 61.8,164.2 48.3,164.2 41.6,152.5 48.3,140.9 			"/>
			<polygon class="st0" points="129,164.2 122.3,152.5 129,140.9 142.5,140.9 149.2,152.5 142.5,164.2 			"/>
			<polygon class="st1" points="209.7,140.9 203,152.5 189.6,152.5 182.8,140.9 189.6,129.2 203,129.2 			"/>
			<polygon class="st1" points="451.9,164.2 445.2,175.8 431.7,175.8 425,164.2 431.7,152.5 445.2,152.5 			"/>
			<polygon class="st0" points="149.2,129.2 142.5,117.6 149.2,105.9 162.7,105.9 169.4,117.6 162.7,129.2 			"/>
			<polygon class="st0" points="149.2,152.5 142.5,140.9 149.2,129.2 162.7,129.2 169.4,140.9 162.7,152.5 			"/>
			<polygon class="st4" points="88.7,140.9 81.9,152.5 68.5,152.5 61.8,140.9 68.5,129.2 81.9,129.2 			"/>
			<polygon class="st4" points="7.9,140.9 1.2,129.2 7.9,117.6 21.4,117.6 28.1,129.2 21.4,140.9 			"/>
			<polygon class="st3" points="21.4,47.7 28.1,59.3 21.4,71 7.9,71 1.2,59.3 7.9,47.7 			"/>
			<polygon class="st2" points="21.4,71 28.1,82.6 21.4,94.3 7.9,94.3 1.2,82.6 7.9,71 			"/>
			<polygon class="st5" points="7.9,117.6 1.2,105.9 7.9,94.3 21.4,94.3 28.1,105.9 21.4,117.6 			"/>
			<polygon class="st4" points="1.2,152.5 7.9,140.9 21.4,140.9 28.1,152.5 21.4,164.2 7.9,164.2 			"/>
			<polygon class="st4" points="263.6,140.9 270.3,129.2 283.7,129.2 290.5,140.9 283.7,152.5 270.3,152.5 			"/>
			<polygon class="st3" points="250.1,164.2 243.4,152.5 250.1,140.9 263.6,140.9 270.3,152.5 263.6,164.2 			"/>
			<polygon class="st0" points="330.8,140.9 324.1,129.2 330.8,117.6 344.3,117.6 351,129.2 344.3,140.9 			"/>
			<polygon class="st0" points="472.1,129.2 465.4,117.6 472.1,105.9 485.5,105.9 492.3,117.6 485.5,129.2 			"/>
			<polygon class="st5" points="492.3,117.6 485.5,105.9 492.3,94.3 505.7,94.3 512.4,105.9 505.7,117.6 			"/>
			<polygon class="st3" points="512.4,129.2 505.7,117.6 512.4,105.9 525.9,105.9 532.6,117.6 525.9,129.2 			"/>
			<polygon class="st4" points="532.6,117.6 525.9,105.9 532.6,94.3 546.1,94.3 552.8,105.9 546.1,117.6 			"/>
			<polygon class="st2" points="512.4,105.9 505.7,94.3 512.4,82.6 525.9,82.6 532.6,94.3 525.9,105.9 			"/>
			<polygon class="st0" points="525.9,82.6 512.4,82.6 505.7,71 512.4,59.3 525.9,59.3 532.6,71 			"/>
			<polygon class="st5" points="525.9,59.3 512.4,59.3 505.7,47.7 512.4,36 525.9,36 532.6,47.7 			"/>
			<polygon class="st3" points="546.1,24.4 552.8,36 546.1,47.7 532.6,47.7 525.9,36 532.6,24.4 			"/>
			<polygon class="st2" points="546.1,47.7 552.8,59.3 546.1,71 532.6,71 525.9,59.3 532.6,47.7 			"/>
			<polygon class="st5" points="532.6,94.3 525.9,82.6 532.6,71 546.1,71 552.8,82.6 546.1,94.3 			"/>
			<polygon class="st4" points="532.6,24.4 525.9,12.7 532.6,1 546.1,1 552.8,12.7 546.1,24.4 			"/>
			<polygon class="st4" points="525.9,129.2 532.6,117.6 546.1,117.6 552.8,129.2 546.1,140.9 532.6,140.9 			"/>
			<polygon class="st0" points="492.3,164.2 485.5,152.5 492.3,140.9 505.7,140.9 512.4,152.5 505.7,164.2 			"/>
			<polygon class="st3" points="512.4,152.5 505.7,140.9 512.4,129.2 525.9,129.2 532.6,140.9 525.9,152.5 			"/>
			<polygon class="st5" points="532.6,164.2 525.9,152.5 532.6,140.9 546.1,140.9 552.8,152.5 546.1,164.2 			"/>
			<polygon class="st4" points="-12.2,129.2 -19,117.6 -12.2,105.9 1.2,105.9 7.9,117.6 1.2,129.2 			"/>
			<polygon class="st2" points="1.2,59.3 7.9,71 1.2,82.6 -12.2,82.6 -19,71 -12.2,59.3 			"/>
			<polygon class="st5" points="-12.2,105.9 -19,94.3 -12.2,82.6 1.2,82.6 7.9,94.3 1.2,105.9 			"/>
			<polygon class="st4" points="-19,140.9 -12.2,129.2 1.2,129.2 7.9,140.9 1.2,152.5 -12.2,152.5 			"/>
			<polygon class="st5" points="-12.2,175.8 -19,164.2 -12.2,152.5 1.2,152.5 7.9,164.2 1.2,175.8 			"/>
			<polygon class="st4" points="384.6,164.2 371.2,164.2 364.5,152.5 371.2,140.9 384.6,140.9 391.4,152.5 			"/>
			<polygon class="st3" points="425,164.2 411.5,164.2 404.8,152.5 411.5,140.9 425,140.9 431.7,152.5 			"/>
			<polygon class="st1" points="485.5,129.2 492.3,140.9 485.5,152.5 472.1,152.5 465.4,140.9 472.1,129.2 			"/>
			<polygon class="st3" points="465.4,140.9 472.1,152.5 465.4,164.2 451.9,164.2 445.2,152.5 451.9,140.9 			"/>
			<polygon class="st1" points="364.5,129.2 371.2,140.9 364.5,152.5 351,152.5 344.3,140.9 351,129.2 			"/>
			<polygon class="st5" points="344.3,140.9 351,152.5 344.3,164.2 330.8,164.2 324.1,152.5 330.8,140.9 			"/>
			<polygon class="st5" points="283.7,152.5 290.5,164.1 283.7,175.8 270.3,175.8 263.6,164.1 270.3,152.5 			"/>
			<polygon class="st0" points="431.7,152.5 425,140.9 431.7,129.2 445.2,129.2 451.9,140.9 445.2,152.5 			"/>
			<polygon class="st1" points="512.4,129.2 505.7,140.9 492.3,140.9 485.5,129.2 492.3,117.6 505.7,117.6 			"/>
			<polygon class="st0" points="552.8,59.3 546.1,47.7 552.8,36 566.2,36 573,47.7 566.2,59.3 			"/>
			<polygon class="st1" points="573,24.4 566.2,36 552.8,36 546.1,24.4 552.8,12.7 566.2,12.7 			"/>
			<polygon class="st0" points="451.9,140.9 445.2,129.2 451.9,117.6 465.4,117.6 472.1,129.2 465.4,140.9 			"/>
			<polygon class="st2" points="451.9,117.6 445.2,129.2 431.7,129.2 425,117.6 431.7,105.9 445.2,105.9 			"/>
			<polygon class="st0" points="431.7,129.2 425,140.9 411.5,140.9 404.8,129.2 411.5,117.6 425,117.6 			"/>
			<polygon class="st4" points="303.9,140.9 310.6,129.2 324.1,129.2 330.8,140.9 324.1,152.5 310.6,152.5 			"/>
			<polygon class="st0" points="68.5,175.8 61.8,164.2 68.5,152.5 81.9,152.5 88.7,164.2 81.9,175.8 			"/>
			<polygon class="st1" points="250.1,164.2 243.4,175.8 229.9,175.8 223.2,164.2 229.9,152.5 243.4,152.5 			"/>
			<polygon class="st0" points="189.6,175.8 182.8,164.2 189.6,152.5 203,152.5 209.7,164.2 203,175.8 			"/>
			<polygon class="st4" points="129,164.2 122.3,175.8 108.8,175.8 102.1,164.2 108.8,152.5 122.3,152.5 			"/>
			<polygon class="st4" points="169.4,164.2 162.7,175.8 149.2,175.8 142.5,164.2 149.2,152.5 162.7,152.5 			"/>
			<polygon class="st4" points="303.9,164.2 310.6,152.5 324.1,152.5 330.8,164.2 324.1,175.8 310.6,175.8 			"/>
			<polygon class="st3" points="28.1,175.8 21.4,164.2 28.1,152.5 41.6,152.5 48.3,164.2 41.6,175.8 			"/>
			<polygon class="st1" points="525.9,152.5 532.6,164.2 525.9,175.8 512.4,175.8 505.7,164.2 512.4,152.5 			"/>
			<polygon class="st1" points="404.8,152.5 411.5,164.2 404.8,175.8 391.4,175.8 384.6,164.2 391.4,152.5 			"/>
			<polygon class="st0" points="472.1,175.8 465.4,164.2 472.1,152.5 485.5,152.5 492.3,164.2 485.5,175.8 			"/>
			<polygon class="st4" points="344.3,164.2 351,152.5 364.5,152.5 371.2,164.2 364.5,175.8 351,175.8 			"/>
			<polygon class="st3" points="290.5,164.2 283.7,152.5 290.5,140.9 303.9,140.9 310.6,152.5 303.9,164.2 			"/>
			<polygon class="st3" points="330.8,187.5 324.1,175.8 330.8,164.2 344.3,164.2 351,175.8 344.3,187.5 			"/>
			<polygon class="st2" points="223.2,187.5 209.7,187.5 203,175.8 209.7,164.2 223.2,164.2 229.9,175.8 			"/>
			<polygon class="st1" points="303.9,164.2 310.6,175.8 303.9,187.5 290.5,187.5 283.7,175.8 290.5,164.2 			"/>
			<polygon class="st1" points="182.8,164.2 189.6,175.8 182.8,187.5 169.4,187.5 162.7,175.8 169.4,164.2 			"/>
			<polygon class="st0" points="250.1,187.5 243.4,175.8 250.1,164.2 263.6,164.2 270.3,175.8 263.6,187.5 			"/>
			<polygon class="st4" points="122.3,175.8 129,164.2 142.5,164.2 149.2,175.8 142.5,187.5 129,187.5 			"/>
			<polygon class="st3" points="371.2,187.5 364.5,175.8 371.2,164.2 384.6,164.2 391.4,175.8 384.6,187.5 			"/>
			<polygon class="st0" points="48.3,187.5 41.6,175.8 48.3,164.2 61.7,164.2 68.5,175.8 61.7,187.5 			"/>
			<polygon class="st5" points="88.7,187.5 81.9,175.8 88.7,164.2 102.1,164.2 108.8,175.8 102.1,187.5 			"/>
			<polygon class="st4" points="505.7,187.5 492.3,187.5 485.5,175.8 492.3,164.2 505.7,164.2 512.4,175.8 			"/>
			<polygon class="st3" points="546.1,187.5 532.6,187.5 525.9,175.8 532.6,164.2 546.1,164.2 552.8,175.8 			"/>
			<polygon class="st3" points="21.4,164.2 28.1,175.8 21.4,187.5 7.9,187.5 1.2,175.8 7.9,164.2 			"/>
			<polygon class="st4" points="552.8,152.5 546.1,140.9 552.8,129.2 566.3,129.2 573,140.9 566.3,152.5 			"/>
			<polygon class="st3" points="566.3,59.3 573,71 566.3,82.6 552.8,82.6 546.1,71 552.8,59.3 			"/>
			<polygon class="st2" points="566.3,82.6 573,94.3 566.3,105.9 552.8,105.9 546.1,94.3 552.8,82.6 			"/>
			<polygon class="st5" points="552.8,129.2 546.1,117.6 552.8,105.9 566.3,105.9 573,117.6 566.3,129.2 			"/>
			<polygon class="st4" points="546.1,164.2 552.8,152.5 566.3,152.5 573,164.2 566.3,175.8 552.8,175.8 			"/>
			<polygon class="st3" points="566.3,175.8 573,187.5 566.3,199.1 552.8,199.1 546.1,187.5 552.8,175.8 			"/>
			<polygon class="st5" points="465.4,164.2 472.1,175.8 465.4,187.5 451.9,187.5 445.2,175.8 451.9,164.2 			"/>
			<polygon class="st3" points="411.5,187.5 404.8,175.8 411.5,164.2 425,164.2 431.7,175.8 425,187.5 			"/>
		</g>
	</g>
</g>
</svg>
