<svg xmlns="http://www.w3.org/2000/svg" viewBox="0 0 554.02 165.22">
  <defs>
    <style>
      .cls-1 {
        fill: #2daee4;
      }

      .cls-1, .cls-3, .cls-5 {
        stroke: #000;
      }

      .cls-1, .cls-2, .cls-3, .cls-4, .cls-5, .cls-6 {
        stroke-miterlimit: 10;
        stroke-width: 2.11px;
      }

      .cls-2 {
        fill: #357b3c;
      }

      .cls-2, .cls-4, .cls-6 {
        stroke: #010101;
      }

      .cls-3 {
        fill: #676767;
      }

      .cls-4 {
        fill: #87b240;
      }

      .cls-5 {
        fill: #c54927;
      }

      .cls-6 {
        fill: #e4be21;
      }
    </style>
  </defs>
  <title>Asset 4</title>
  <g id="Layer_2" data-name="Layer 2">
    <g id="Layer_1-2" data-name="Layer 1">
      <g>
        <polygon class="cls-1" points="28.12 105.91 21.4 94.26 28.12 82.61 41.58 82.61 48.3 94.26 41.58 105.91 28.12 105.91"/>
        <polygon class="cls-1" points="28.12 129.21 21.4 117.56 28.12 105.91 41.58 105.91 48.3 117.56 41.58 129.21 28.12 129.21"/>
        <polygon class="cls-1" points="28.12 152.51 21.4 140.86 28.12 129.21 41.58 129.21 48.3 140.86 41.58 152.51 28.12 152.51"/>
        <polygon class="cls-2" points="48.3 117.56 41.58 105.91 48.3 94.26 61.76 94.26 68.48 105.91 61.76 117.56 48.3 117.56"/>
        <polygon class="cls-1" points="68.48 129.21 61.76 117.56 68.48 105.91 81.94 105.91 88.66 117.56 81.94 129.21 68.48 129.21"/>
        <polygon class="cls-1" points="169.38 140.87 162.66 129.21 169.38 117.56 182.84 117.56 189.56 129.21 182.84 140.87 169.38 140.87"/>
        <polygon class="cls-3" points="48.3 140.86 41.58 129.21 48.3 117.56 61.76 117.56 68.48 129.21 61.76 140.86 48.3 140.86"/>
        <polygon class="cls-4" points="209.74 164.17 203.02 152.51 209.74 140.87 223.2 140.87 229.92 152.51 223.2 164.17 209.74 164.17"/>
        <polygon class="cls-3" points="102.12 164.17 88.66 164.17 81.94 152.51 88.66 140.87 102.12 140.87 108.84 152.51 102.12 164.17"/>
        <polygon class="cls-2" points="182.84 140.87 189.56 152.51 182.84 164.17 169.38 164.17 162.66 152.51 169.38 140.87 182.84 140.87"/>
        <polygon class="cls-2" points="61.76 140.87 68.48 152.51 61.76 164.17 48.3 164.17 41.58 152.51 48.3 140.87 61.76 140.87"/>
        <polygon class="cls-1" points="129.02 164.17 122.3 152.51 129.02 140.87 142.48 140.87 149.2 152.51 142.48 164.17 129.02 164.17"/>
        <polygon class="cls-2" points="209.74 140.87 203.02 152.51 189.56 152.51 182.84 140.86 189.56 129.21 203.02 129.21 209.74 140.87"/>
        <polygon class="cls-1" points="149.2 129.21 142.48 117.56 149.2 105.91 162.66 105.91 169.38 117.56 162.66 129.21 149.2 129.21"/>
        <polygon class="cls-1" points="149.2 152.51 142.48 140.87 149.2 129.21 162.66 129.21 169.38 140.87 162.66 152.51 149.2 152.51"/>
        <polygon class="cls-5" points="88.66 140.87 81.94 152.51 68.48 152.51 61.76 140.87 68.48 129.21 81.94 129.21 88.66 140.87"/>
        <polygon class="cls-5" points="7.94 140.86 1.22 129.21 7.94 117.56 21.4 117.56 28.12 129.21 21.4 140.86 7.94 140.86"/>
        <polygon class="cls-4" points="21.4 47.66 28.12 59.31 21.4 70.96 7.94 70.96 1.22 59.31 7.94 47.66 21.4 47.66"/>
        <polygon class="cls-3" points="21.4 70.96 28.12 82.61 21.4 94.26 7.94 94.26 1.22 82.61 7.94 70.96 21.4 70.96"/>
        <polygon class="cls-6" points="7.94 117.56 1.22 105.91 7.94 94.26 21.4 94.26 28.12 105.91 21.4 117.56 7.94 117.56"/>
        <polygon class="cls-5" points="1.22 152.51 7.94 140.86 21.4 140.86 28.12 152.51 21.4 164.17 7.94 164.17 1.22 152.51"/>
        <polygon class="cls-5" points="263.56 140.87 270.28 129.21 283.74 129.21 290.46 140.87 283.74 152.51 270.28 152.51 263.56 140.87"/>
        <polygon class="cls-4" points="250.1 164.17 243.38 152.51 250.1 140.87 263.56 140.87 270.28 152.51 263.56 164.17 250.1 164.17"/>
        <polygon class="cls-1" points="330.82 140.87 324.1 129.21 330.82 117.56 344.28 117.56 351 129.21 344.28 140.87 330.82 140.87"/>
        <polygon class="cls-1" points="472.08 129.21 465.36 117.56 472.08 105.91 485.54 105.91 492.26 117.56 485.54 129.21 472.08 129.21"/>
        <polygon class="cls-6" points="492.26 117.56 485.54 105.91 492.26 94.26 505.71 94.26 512.44 105.91 505.71 117.56 492.26 117.56"/>
        <polygon class="cls-4" points="512.44 129.21 505.71 117.56 512.44 105.91 525.89 105.91 532.62 117.56 525.89 129.21 512.44 129.21"/>
        <polygon class="cls-5" points="532.62 117.56 525.89 105.91 532.62 94.26 546.08 94.26 552.8 105.91 546.08 117.56 532.62 117.56"/>
        <polygon class="cls-3" points="512.44 105.91 505.71 94.26 512.44 82.61 525.89 82.61 532.62 94.26 525.89 105.91 512.44 105.91"/>
        <polygon class="cls-1" points="525.89 82.61 512.44 82.61 505.71 70.96 512.44 59.31 525.89 59.31 532.62 70.96 525.89 82.61"/>
        <polygon class="cls-6" points="525.89 59.31 512.44 59.31 505.71 47.66 512.44 36.01 525.89 36.01 532.62 47.66 525.89 59.31"/>
        <polygon class="cls-4" points="546.08 24.36 552.8 36.01 546.08 47.66 532.62 47.66 525.89 36.01 532.62 24.36 546.08 24.36"/>
        <polygon class="cls-3" points="546.08 47.66 552.8 59.31 546.08 70.96 532.62 70.96 525.89 59.31 532.62 47.66 546.08 47.66"/>
        <polygon class="cls-6" points="532.62 94.26 525.89 82.61 532.62 70.96 546.08 70.96 552.8 82.61 546.08 94.26 532.62 94.26"/>
        <polygon class="cls-5" points="532.62 24.36 525.89 12.71 532.62 1.05 546.08 1.05 552.8 12.71 546.08 24.36 532.62 24.36"/>
        <polygon class="cls-5" points="525.89 129.21 532.62 117.56 546.08 117.56 552.8 129.21 546.08 140.87 532.62 140.87 525.89 129.21"/>
        <polygon class="cls-1" points="492.26 164.17 485.54 152.51 492.26 140.87 505.71 140.87 512.44 152.51 505.71 164.17 492.26 164.17"/>
        <polygon class="cls-4" points="512.44 152.51 505.71 140.87 512.44 129.21 525.89 129.21 532.62 140.87 525.89 152.51 512.44 152.51"/>
        <polygon class="cls-6" points="532.62 164.17 525.89 152.51 532.62 140.87 546.08 140.87 552.8 152.51 546.08 164.17 532.62 164.17"/>
        <polygon class="cls-5" points="384.63 164.17 371.18 164.17 364.46 152.51 371.18 140.87 384.63 140.87 391.36 152.52 384.63 164.17"/>
        <polygon class="cls-4" points="425 164.17 411.54 164.17 404.81 152.51 411.54 140.87 425 140.87 431.72 152.51 425 164.17"/>
        <polygon class="cls-2" points="485.54 129.21 492.26 140.87 485.54 152.51 472.08 152.51 465.36 140.87 472.08 129.21 485.54 129.21"/>
        <polygon class="cls-4" points="465.36 140.87 472.08 152.51 465.36 164.17 451.9 164.17 445.18 152.51 451.9 140.87 465.36 140.87"/>
        <polygon class="cls-2" points="364.46 129.21 371.18 140.87 364.46 152.51 351 152.51 344.28 140.87 351 129.21 364.46 129.21"/>
        <polygon class="cls-6" points="344.28 140.87 351 152.51 344.28 164.17 330.82 164.17 324.1 152.51 330.82 140.87 344.28 140.87"/>
        <polygon class="cls-1" points="431.72 152.51 425 140.87 431.72 129.21 445.18 129.21 451.9 140.87 445.18 152.51 431.72 152.51"/>
        <polygon class="cls-2" points="512.44 129.21 505.71 140.87 492.26 140.87 485.54 129.21 492.26 117.56 505.71 117.56 512.44 129.21"/>
        <polygon class="cls-1" points="451.9 140.87 445.18 129.21 451.9 117.56 465.36 117.56 472.08 129.21 465.36 140.87 451.9 140.87"/>
        <polygon class="cls-3" points="451.9 117.56 445.18 129.21 431.72 129.21 425 117.56 431.72 105.91 445.18 105.91 451.9 117.56"/>
        <polygon class="cls-1" points="431.72 129.21 425 140.87 411.54 140.87 404.81 129.21 411.54 117.56 425 117.56 431.72 129.21"/>
        <polygon class="cls-5" points="303.92 140.87 310.64 129.21 324.1 129.21 330.82 140.87 324.1 152.51 310.64 152.51 303.92 140.87"/>
        <polygon class="cls-4" points="290.46 164.17 283.74 152.51 290.46 140.87 303.92 140.87 310.64 152.51 303.92 164.17 290.46 164.17"/>
      </g>
    </g>
  </g>
</svg>
