<?xml version="1.0" encoding="utf-8"?>
<!-- Generator: Adobe Illustrator 23.0.4, SVG Export Plug-In . SVG Version: 6.00 Build 0)  -->
<svg version="1.1" id="Layer_1" xmlns="http://www.w3.org/2000/svg" xmlns:xlink="http://www.w3.org/1999/xlink" x="0px" y="0px"
	 viewBox="0 0 554 540.5" style="enable-background:new 0 0 554 540.5;" xml:space="preserve">
<style type="text/css">
	.st0{fill:#C91E27;}
	.st1{fill:#037BBA;}
	.st2{fill:#00AC58;}
	.st3{fill:#F79731;}
	.st4{fill:#FFD324;}
</style>
<title>Asset 4</title>
<g>
	
		<rect x="34.9" y="34.1" transform="matrix(0.7071 0.7071 -0.7071 0.7071 45.0794 -28.135)" class="st0" width="43.2" height="12.6"/>
	
		<rect x="67.3" y="66.5" transform="matrix(0.7071 0.7071 -0.7071 0.7071 77.484 -41.5574)" class="st0" width="43.2" height="12.6"/>
	
		<rect x="99.7" y="98.9" transform="matrix(0.7071 0.7071 -0.7071 0.7071 109.8887 -54.9798)" class="st0" width="43.2" height="12.6"/>
	
		<rect x="132.1" y="131.3" transform="matrix(0.7071 0.7071 -0.7071 0.7071 142.2933 -68.4023)" class="st0" width="43.2" height="12.6"/>
	
		<rect x="209.6" y="178.1" transform="matrix(0.7071 0.7071 -0.7071 0.7071 198.0966 -109.4609)" class="st0" width="43.2" height="12.6"/>
	<rect x="170.8" y="154.7" class="st0" width="43.2" height="12.6"/>
	
		<rect x="220.3" y="222.1" transform="matrix(-1.836970e-16 1 -1 -1.836970e-16 470.2778 -13.6012)" class="st0" width="43.2" height="12.6"/>
	<rect x="250.8" y="252.6" class="st0" width="43.2" height="12.6"/>
	<rect x="296.7" y="252.6" class="st0" width="43.2" height="12.6"/>
	
		<rect x="327.2" y="222.1" transform="matrix(-1.836970e-16 1 -1 -1.836970e-16 577.1265 -120.4499)" class="st0" width="43.2" height="12.6"/>
	
		<rect x="327.2" y="176.2" transform="matrix(-1.836970e-16 1 -1 -1.836970e-16 531.2994 -166.277)" class="st0" width="43.2" height="12.6"/>
	
		<rect x="316.4" y="132.3" transform="matrix(0.7071 0.7071 -0.7071 0.7071 196.9667 -198.3872)" class="st0" width="43.2" height="12.6"/>
	
		<rect x="284" y="99.9" transform="matrix(0.7071 0.7071 -0.7071 0.7071 164.5621 -184.9648)" class="st0" width="43.2" height="12.6"/>
	
		<rect x="260.5" y="61.1" transform="matrix(-1.836970e-16 1 -1 -1.836970e-16 349.5674 -214.708)" class="st0" width="43.2" height="12.6"/>
	
		<rect x="260.5" y="15.3" transform="matrix(-1.836970e-16 1 -1 -1.836970e-16 303.7403 -260.535)" class="st0" width="43.2" height="12.6"/>
	<rect x="168.2" y="497.3" class="st1" width="43.3" height="12.6"/>
	
		<rect x="137.6" y="512.6" transform="matrix(6.123234e-17 -1 1 6.123234e-17 -359.6498 678.195)" class="st1" width="43.3" height="12.6"/>
	<rect x="214.1" y="497.3" class="st1" width="43.3" height="12.6"/>
	<rect x="198.9" y="451.4" class="st1" width="43.3" height="12.6"/>
	
		<rect x="229.4" y="466.8" transform="matrix(6.123234e-17 -1 1 6.123234e-17 -222.0337 724.067)" class="st1" width="43.3" height="12.6"/>
	
		<rect x="183.5" y="420.9" transform="matrix(6.123234e-17 -1 1 6.123234e-17 -222.0337 632.3229)" class="st1" width="43.3" height="12.6"/>
	
		<rect x="183.5" y="375" transform="matrix(6.123234e-17 -1 1 6.123234e-17 -176.1616 586.4509)" class="st1" width="43.3" height="12.6"/>
	
		<rect x="128.6" y="313.9" transform="matrix(6.123234e-17 -1 1 6.123234e-17 -169.9992 470.3917)" class="st1" width="43.3" height="12.6"/>
	
		<rect x="156.5" y="344.5" transform="matrix(-1 -1.224647e-16 1.224647e-16 -1 355.3466 701.5214)" class="st1" width="42.4" height="12.6"/>
	
		<rect x="128.6" y="268" transform="matrix(6.123234e-17 -1 1 6.123234e-17 -124.1018 424.5057)" class="st1" width="43.3" height="12.6"/>
	<rect x="143.9" y="237.5" class="st1" width="43.3" height="12.6"/>
	<rect x="189.8" y="237.5" class="st1" width="43.3" height="12.6"/>
	<rect x="336.2" y="313.8" class="st1" width="43.3" height="12.6"/>
	
		<rect x="380.2" y="303" transform="matrix(0.7071 -0.7071 0.7071 0.7071 -100.9751 374.7258)" class="st1" width="43.3" height="12.6"/>
	<rect x="419" y="279.5" class="st1" width="43.3" height="12.6"/>
	<rect x="464.9" y="279.5" class="st1" width="43.3" height="12.6"/>
	<rect x="510.7" y="279.5" class="st1" width="43.3" height="12.6"/>
	<rect x="413.7" y="391.2" class="st2" width="43.2" height="12.6"/>
	
		<rect x="452.5" y="414.7" transform="matrix(0.7071 0.7071 -0.7071 0.7071 436.5337 -211.9546)" class="st2" width="43.2" height="12.6"/>
	
		<rect x="375" y="367.8" transform="matrix(0.7071 0.7071 -0.7071 0.7071 380.6891 -170.8646)" class="st2" width="43.2" height="12.6"/>
	<rect x="336.2" y="344.4" class="st2" width="43.2" height="12.6"/>
	
		<rect x="305.7" y="329" transform="matrix(-1.836970e-16 1 -1 -1.836970e-16 662.6413 8.0366)" class="st2" width="43.2" height="12.6"/>
	
		<rect x="305.7" y="222" transform="matrix(-1.836970e-16 1 -1 -1.836970e-16 555.6235 -98.9812)" class="st2" width="43.2" height="12.6"/>
	
		<rect x="336.1" y="108.9" transform="matrix(0.7071 -0.7071 0.7071 0.7071 23.3391 286.6927)" class="st2" width="43.2" height="12.6"/>
	
		<rect x="368.5" y="76.5" transform="matrix(0.7071 -0.7071 0.7071 0.7071 55.7679 300.1252)" class="st2" width="43.2" height="12.6"/>
	<rect y="265.2" class="st3" width="43.3" height="12.6"/>
	<rect x="45.9" y="265.2" class="st3" width="43.3" height="12.6"/>
	<rect x="91.7" y="265.2" class="st3" width="43.3" height="12.6"/>
	
		<rect x="113.4" y="234.7" transform="matrix(6.123234e-17 -1 1 6.123234e-17 -105.9613 375.95)" class="st3" width="43.3" height="12.6"/>
	<rect x="143.9" y="213" class="st3" width="43.3" height="12.6"/>
	<rect x="189.8" y="213" class="st3" width="43.3" height="12.6"/>
	
		<rect x="249" y="223.9" transform="matrix(0.7071 0.7071 -0.7071 0.7071 242.022 -123.9291)" class="st3" width="43.3" height="12.6"/>
	
		<rect x="259.7" y="283.2" transform="matrix(-1.836970e-16 1 -1 -1.836970e-16 570.9303 8.0142)" class="st3" width="43.4" height="12.6"/>
	<rect x="229.3" y="436.2" class="st4" width="43.3" height="12.6"/>
	
		<rect x="244.6" y="466.8" transform="matrix(-1.836970e-16 1 -1 -1.836970e-16 739.2747 206.826)" class="st4" width="43.3" height="12.6"/>
	
		<rect x="244.6" y="512.6" transform="matrix(-1.836970e-16 1 -1 -1.836970e-16 785.1467 252.6981)" class="st4" width="43.3" height="12.6"/>
	
		<rect x="198.7" y="420.9" transform="matrix(-1.836970e-16 1 -1 -1.836970e-16 647.5305 206.826)" class="st4" width="43.3" height="12.6"/>
	
		<rect x="198.7" y="375" transform="matrix(-1.836970e-16 1 -1 -1.836970e-16 601.6585 160.954)" class="st4" width="43.3" height="12.6"/>
	<rect x="214.1" y="344.5" class="st4" width="43.3" height="12.6"/>
	<rect x="259.9" y="344.5" class="st4" width="43.3" height="12.6"/>
	
		<rect x="244.6" y="283.3" transform="matrix(6.123234e-17 -1 1 6.123234e-17 -23.3379 555.7864)" class="st1" width="43.3" height="12.6"/>
	<rect x="259.9" y="313.8" class="st1" width="43.3" height="12.6"/>
	
		<rect x="305.7" y="283.2" transform="matrix(-1.836970e-16 1 -1 -1.836970e-16 616.7693 -37.8355)" class="st2" width="43.2" height="12.6"/>
	<rect x="336.2" y="298.6" class="st3" width="43.3" height="12.6"/>
	
		<rect x="375" y="275.2" transform="matrix(0.7071 -0.7071 0.7071 0.7071 -82.8466 362.9019)" class="st3" width="43.3" height="12.6"/>
	<rect x="419" y="264.3" class="st3" width="43.3" height="12.6"/>
	
		<rect x="457.8" y="240.8" transform="matrix(0.7071 -0.7071 0.7071 0.7071 -34.3363 411.3829)" class="st3" width="43.3" height="12.6"/>
	
		<rect x="490.2" y="208.4" transform="matrix(0.7071 -0.7071 0.7071 0.7071 -1.872 424.8301)" class="st3" width="43.3" height="12.6"/>
	
		<rect x="290.5" y="329.1" transform="matrix(-1.836970e-16 1 -1 -1.836970e-16 647.5305 23.3379)" class="st4" width="43.3" height="12.6"/>
	
		<rect x="290.5" y="283.2" transform="matrix(-1.836970e-16 1 -1 -1.836970e-16 601.5686 -22.6241)" class="st4" width="43.3" height="12.6"/>
	
		<rect x="290.5" y="222" transform="matrix(-1.836970e-16 1 -1 -1.836970e-16 540.4121 -83.7805)" class="st4" width="43.3" height="12.6"/>
	
		<rect x="253.5" y="161" transform="matrix(-1.836970e-16 1 -1 -1.836970e-16 442.3789 -107.8959)" class="st2" width="43.2" height="12.6"/>
	<rect x="284.1" y="176.3" class="st2" width="43.3" height="12.6"/>
	<rect x="284.1" y="145.6" class="st2" width="43.3" height="12.6"/>
	
		<rect x="238.3" y="160.9" transform="matrix(-1.836970e-16 1 -1 -1.836970e-16 427.1675 -92.6952)" class="st4" width="43.3" height="12.6"/>
	
		<rect x="268.8" y="191.5" transform="matrix(-1 -1.224647e-16 1.224647e-16 -1 580.9424 395.5519)" class="st4" width="43.3" height="12.6"/>
	
		<rect x="268.8" y="130.4" transform="matrix(-1 -1.224647e-16 1.224647e-16 -1 580.9424 273.3926)" class="st4" width="43.3" height="12.6"/>
</g>
</svg>
